<svg width="4211" height="1400" viewBox="0 0 4211 1400" fill="none" xmlns="http://www.w3.org/2000/svg">
<path d="M2816.03 1400V0H3068.03V774H3104.03L3432.03 408H3760.03L3302.03 888L3776.03 1400H3452.03L3104.03 1006H3068.03V1400H2816.03Z" fill="black"/>
<path d="M1611.58 1400C1546.24 1400 1492.91 1380 1451.58 1340C1411.58 1298.67 1391.58 1244 1391.58 1176V616H1143.58V408H1391.58V100H1643.58V408H1935.58V616H1643.58V1132C1643.58 1172 1662.24 1192 1699.58 1192H1891.58V1400H1611.58ZM2343.58 1400C2278.24 1400 2224.91 1380 2183.58 1340C2143.58 1298.67 2123.58 1244 2123.58 1176V616H1935.58V408H2123.58V100H2375.58V408H2647.58V616H2375.58V1132C2375.58 1172 2394.24 1192 2431.58 1192H2623.58V1400H2343.58Z" fill="black"/>
<path d="M0 1400L368 0H828L1196 1400H924L848 1092H348L272 1400H0ZM410 848H786L616 166H580L410 848Z" fill="black"/>
<rect x="3555" y="744" width="656" height="656" fill="#FDCF18"/>
</svg>
